HIERARCHY
ROOT mixamorig:Hips
{
	OFFSET -0.000008 104.274872 1.554316
	CHANNELS 6 Xposition Yposition Zposition Xrotation Yrotation Zrotation
	JOINT mixamorig:Spine
	{
		OFFSET -0.000005 10.181587 0.131521
		CHANNELS 6 Xposition Yposition Zposition Xrotation Yrotation Zrotation
		JOINT mixamorig:Spine1
		{
			OFFSET -0.000000 9.893967 -1.470711
			CHANNELS 3 Xrotation Yrotation Zrotation
			JOINT mixamorig:Spine2
			{
				OFFSET -0.000000 9.220772 -1.370643
				CHANNELS 3 Xrotation Yrotation Zrotation
				JOINT mixamorig:Neck
				{
					OFFSET 0.000001 16.740387 -2.049035
					CHANNELS 6 Xposition Yposition Zposition Xrotation Yrotation Zrotation
					JOINT mixamorig:Head
					{
						OFFSET 0.000000 9.617889 1.685008
						CHANNELS 6 Xposition Yposition Zposition Xrotation Yrotation Zrotation
						JOINT mixamorig:HeadTop_End
						{
							OFFSET 0.000002 22.037369 7.501095
							CHANNELS 6 Xposition Yposition Zposition Xrotation Yrotation Zrotation
							End Site
							{
								OFFSET 0.000002 23.106552 -2.828258
							}
						}
					}
				}
				JOINT mixamorig:RightShoulder
				{
					OFFSET -4.569969 11.014908 -2.160884
					CHANNELS 6 Xposition Yposition Zposition Xrotation Yrotation Zrotation
					JOINT mixamorig:RightArm
					{
						OFFSET -10.592846 -0.524811 -2.232097
						CHANNELS 3 Xrotation Yrotation Zrotation
						JOINT mixamorig:RightForeArm
						{
							OFFSET -27.841518 0.000000 -0.000004
							CHANNELS 3 Xrotation Yrotation Zrotation
							JOINT mixamorig:RightHand
							{
								OFFSET -28.328838 0.000000 0.000019
								CHANNELS 3 Xrotation Yrotation Zrotation
								JOINT mixamorig:RightHandThumb1
								{
									OFFSET -2.464806 -1.573990 2.681852
									CHANNELS 6 Xposition Yposition Zposition Xrotation Yrotation Zrotation
									JOINT mixamorig:RightHandThumb2
									{
										OFFSET -3.215187 -1.872772 1.924281
										CHANNELS 3 Xrotation Yrotation Zrotation
										JOINT mixamorig:RightHandThumb3
										{
											OFFSET -2.654839 -1.527985 1.512611
											CHANNELS 3 Xrotation Yrotation Zrotation
											JOINT mixamorig:RightHandThumb4
											{
												OFFSET -2.018822 -1.152008 1.108052
												CHANNELS 3 Xrotation Yrotation Zrotation
												End Site
												{
													OFFSET -1.888100 -1.145340 1.324313
												}
											}
										}
									}
								}
								JOINT mixamorig:RightHandIndex1
								{
									OFFSET -9.108284 -0.517868 2.259834
									CHANNELS 6 Xposition Yposition Zposition Xrotation Yrotation Zrotation
									JOINT mixamorig:RightHandIndex2
									{
										OFFSET -3.699997 0.000015 0.001215
										CHANNELS 3 Xrotation Yrotation Zrotation
										JOINT mixamorig:RightHandIndex3
										{
											OFFSET -2.850006 0.000000 -0.000521
											CHANNELS 3 Xrotation Yrotation Zrotation
											JOINT mixamorig:RightHandIndex4
											{
												OFFSET -2.772186 0.000000 -0.000020
												CHANNELS 3 Xrotation Yrotation Zrotation
												End Site
												{
													OFFSET -2.772186 0.000000 -0.000502
												}
											}
										}
									}
								}
								JOINT mixamorig:RightHandMiddle1
								{
									OFFSET -9.532501 -0.000046 -0.000025
									CHANNELS 6 Xposition Yposition Zposition Xrotation Yrotation Zrotation
									JOINT mixamorig:RightHandMiddle2
									{
										OFFSET -3.699997 0.000015 0.003713
										CHANNELS 3 Xrotation Yrotation Zrotation
										JOINT mixamorig:RightHandMiddle3
										{
											OFFSET -2.949997 0.000000 -0.002054
											CHANNELS 3 Xrotation Yrotation Zrotation
											JOINT mixamorig:RightHandMiddle4
											{
												OFFSET -2.946632 0.000015 -0.000155
												CHANNELS 3 Xrotation Yrotation Zrotation
												End Site
												{
													OFFSET -2.946625 0.000000 -0.001135
												}
											}
										}
									}
								}
								JOINT mixamorig:RightHandRing1
								{
									OFFSET -9.103592 -0.043076 -1.865134
									CHANNELS 6 Xposition Yposition Zposition Xrotation Yrotation Zrotation
									JOINT mixamorig:RightHandRing2
									{
										OFFSET -3.379272 0.000000 -0.001054
										CHANNELS 3 Xrotation Yrotation Zrotation
										JOINT mixamorig:RightHandRing3
										{
											OFFSET -2.889687 0.000000 0.000379
											CHANNELS 3 Xrotation Yrotation Zrotation
											JOINT mixamorig:RightHandRing4
											{
												OFFSET -2.638817 0.000000 0.000942
												CHANNELS 3 Xrotation Yrotation Zrotation
												End Site
												{
													OFFSET -2.638802 0.000000 0.005160
												}
											}
										}
									}
								}
								JOINT mixamorig:RightHandPinky1
								{
									OFFSET -8.076675 -0.486710 -3.806279
									CHANNELS 6 Xposition Yposition Zposition Xrotation Yrotation Zrotation
									JOINT mixamorig:RightHandPinky2
									{
										OFFSET -3.599998 -0.000031 -0.003747
										CHANNELS 3 Xrotation Yrotation Zrotation
										JOINT mixamorig:RightHandPinky3
										{
											OFFSET -2.099991 -0.000015 -0.005740
											CHANNELS 3 Xrotation Yrotation Zrotation
											JOINT mixamorig:RightHandPinky4
											{
												OFFSET -2.115776 -0.000015 -0.003680
												CHANNELS 3 Xrotation Yrotation Zrotation
												End Site
												{
													OFFSET -2.115784 -0.000015 -0.003507
												}
											}
										}
									}
								}
							}
						}
					}
				}
				JOINT mixamorig:LeftShoulder
				{
					OFFSET 4.570447 11.014709 -2.160855
					CHANNELS 6 Xposition Yposition Zposition Xrotation Yrotation Zrotation
					JOINT mixamorig:LeftArm
					{
						OFFSET 10.592369 -0.524597 -2.232120
						CHANNELS 3 Xrotation Yrotation Zrotation
						JOINT mixamorig:LeftForeArm
						{
							OFFSET 27.841522 -0.000031 0.000023
							CHANNELS 3 Xrotation Yrotation Zrotation
							JOINT mixamorig:LeftHand
							{
								OFFSET 28.328835 -0.000031 0.000018
								CHANNELS 3 Xrotation Yrotation Zrotation
								JOINT mixamorig:LeftHandThumb1
								{
									OFFSET 2.466141 -1.576187 2.681734
									CHANNELS 6 Xposition Yposition Zposition Xrotation Yrotation Zrotation
									JOINT mixamorig:LeftHandThumb2
									{
										OFFSET 3.217804 -1.872055 1.916487
										CHANNELS 3 Xrotation Yrotation Zrotation
										JOINT mixamorig:LeftHandThumb3
										{
											OFFSET 2.656013 -1.528809 1.514505
											CHANNELS 3 Xrotation Yrotation Zrotation
											JOINT mixamorig:LeftHandThumb4
											{
												OFFSET 2.020889 -1.154068 1.115134
												CHANNELS 3 Xrotation Yrotation Zrotation
												End Site
												{
													OFFSET 1.908852 -1.150833 1.300489
												}
											}
										}
									}
								}
								JOINT mixamorig:LeftHandIndex1
								{
									OFFSET 9.109306 -0.518036 2.259871
									CHANNELS 6 Xposition Yposition Zposition Xrotation Yrotation Zrotation
									JOINT mixamorig:LeftHandIndex2
									{
										OFFSET 3.699997 -0.000015 -0.000323
										CHANNELS 3 Xrotation Yrotation Zrotation
										JOINT mixamorig:LeftHandIndex3
										{
											OFFSET 2.850006 -0.000015 0.000350
											CHANNELS 3 Xrotation Yrotation Zrotation
											JOINT mixamorig:LeftHandIndex4
											{
												OFFSET 2.774864 0.000000 -0.000027
												CHANNELS 3 Xrotation Yrotation Zrotation
												End Site
												{
													OFFSET 2.774872 -0.000015 -0.000099
												}
											}
										}
									}
								}
								JOINT mixamorig:LeftHandMiddle1
								{
									OFFSET 9.533401 0.000031 0.000044
									CHANNELS 6 Xposition Yposition Zposition Xrotation Yrotation Zrotation
									JOINT mixamorig:LeftHandMiddle2
									{
										OFFSET 3.699997 -0.000015 -0.000231
										CHANNELS 3 Xrotation Yrotation Zrotation
										JOINT mixamorig:LeftHandMiddle3
										{
											OFFSET 2.950005 0.000000 -0.000060
											CHANNELS 3 Xrotation Yrotation Zrotation
											JOINT mixamorig:LeftHandMiddle4
											{
												OFFSET 2.952858 0.000000 0.000063
												CHANNELS 3 Xrotation Yrotation Zrotation
												End Site
												{
													OFFSET 2.952866 0.000000 0.000228
												}
											}
										}
									}
								}
								JOINT mixamorig:LeftHandRing1
								{
									OFFSET 9.104530 -0.043030 -1.865074
									CHANNELS 6 Xposition Yposition Zposition Xrotation Yrotation Zrotation
									JOINT mixamorig:LeftHandRing2
									{
										OFFSET 3.150002 -0.000015 0.000042
										CHANNELS 3 Xrotation Yrotation Zrotation
										JOINT mixamorig:LeftHandRing3
										{
											OFFSET 2.949997 0.000000 0.000037
											CHANNELS 3 Xrotation Yrotation Zrotation
											JOINT mixamorig:LeftHandRing4
											{
												OFFSET 2.644318 -0.000015 0.000059
												CHANNELS 3 Xrotation Yrotation Zrotation
												End Site
												{
													OFFSET 2.644318 0.000000 0.000121
												}
											}
										}
									}
								}
								JOINT mixamorig:LeftHandPinky1
								{
									OFFSET 8.077782 -0.486877 -3.806256
									CHANNELS 6 Xposition Yposition Zposition Xrotation Yrotation Zrotation
									JOINT mixamorig:LeftHandPinky2
									{
										OFFSET 3.599968 0.000031 0.014726
										CHANNELS 3 Xrotation Yrotation Zrotation
										JOINT mixamorig:LeftHandPinky3
										{
											OFFSET 2.099991 0.000015 0.007705
											CHANNELS 3 Xrotation Yrotation Zrotation
											JOINT mixamorig:LeftHandPinky4
											{
												OFFSET 2.125511 0.000015 0.007514
												CHANNELS 3 Xrotation Yrotation Zrotation
												End Site
												{
													OFFSET 2.125526 0.000015 0.006258
												}
											}
										}
									}
								}
							}
						}
					}
				}
			}
		}
	}
	JOINT mixamorig:RightUpLeg
	{
		OFFSET -8.207787 -6.751671 -1.599560
		CHANNELS 6 Xposition Yposition Zposition Xrotation Yrotation Zrotation
		JOINT mixamorig:RightLeg
		{
			OFFSET -0.000001 -44.370113 0.345939
			CHANNELS 3 Xrotation Yrotation Zrotation
			JOINT mixamorig:RightFoot
			{
				OFFSET 0.000001 -44.423676 -3.043536
				CHANNELS 3 Xrotation Yrotation Zrotation
				JOINT mixamorig:RightToeBase
				{
					OFFSET -0.000003 -8.728670 10.710561
					CHANNELS 3 Xrotation Yrotation Zrotation
					JOINT mixamorig:RightToe_End
					{
						OFFSET -0.000003 -0.000677 9.278120
						CHANNELS 3 Xrotation Yrotation Zrotation
						End Site
						{
							OFFSET -0.000003 -0.000677 9.278120
						}
					}
				}
			}
		}
	}
	JOINT mixamorig:LeftUpLeg
	{
		OFFSET 8.207791 -6.751701 -1.599555
		CHANNELS 6 Xposition Yposition Zposition Xrotation Yrotation Zrotation
		JOINT mixamorig:LeftLeg
		{
			OFFSET -0.000002 -44.370033 0.346958
			CHANNELS 3 Xrotation Yrotation Zrotation
			JOINT mixamorig:LeftFoot
			{
				OFFSET 0.000000 -44.423653 -3.044392
				CHANNELS 3 Xrotation Yrotation Zrotation
				JOINT mixamorig:LeftToeBase
				{
					OFFSET -0.000003 -8.728668 10.710560
					CHANNELS 3 Xrotation Yrotation Zrotation
					JOINT mixamorig:LeftToe_End
					{
						OFFSET -0.000003 -0.000677 9.278137
						CHANNELS 3 Xrotation Yrotation Zrotation
						End Site
						{
							OFFSET -0.000003 -0.000677 9.278137
						}
					}
				}
			}
		}
	}
}
MOTION
Frames: 4
Frame Time: 0.033333
-0.033739 100.088051 0.908299 -11.844970 -3.873130 -1.282516 -0.000005 10.181609 0.131521 5.050039 1.366687 0.532489 12.860766 0.645705 -0.208208 23.982143 0.566641 -0.298097 0.000002 16.740381 -2.049031 -16.016833 1.889022 -3.307771 0.000001 9.617857 1.685008 -11.333934 -1.831231 -0.094695 0.000004 22.037354 7.501097 -0.000001 0.000000 -0.000000 -4.569970 11.014879 -2.160875 4.246563 -0.290204 8.976580 -22.341277 9.215006 60.261605 -3.050862 35.932823 0.989516 6.107267 4.230001 8.739277 -2.464811 -1.573960 2.681853 0.954053 0.998597 5.826200 4.522327 -43.401249 -9.479667 -4.022607 -12.283974 -16.204999 -0.000001 -0.000007 0.000001 -9.108277 -0.517892 2.259838 11.932513 12.767755 -11.442240 0.724503 -2.477898 32.487614 0.378913 -1.852305 23.252882 -0.000003 0.000008 0.000003 -9.532510 -0.000060 -0.000024 0.048040 -2.337884 -0.020284 0.708701 -2.414523 32.487600 0.233612 -1.497885 18.241796 0.000003 -0.000001 0.000001 -9.103589 -0.043071 -1.865131 1.303676 -7.580325 10.419132 0.734365 -2.530059 32.492289 0.240968 -1.472767 18.242611 0.000000 0.000001 -0.000004 -8.076683 -0.486715 -3.806274 1.817333 -24.592181 18.493707 0.646343 -2.433713 32.493976 0.203416 -1.522923 18.243963 0.000001 0.000003 -0.000002 4.570450 11.014716 -2.160849 5.257851 2.072747 -11.339617 -25.932809 -5.884282 -60.743639 -3.356268 -38.562247 -1.174383 -0.442658 5.566288 -15.303174 2.466130 -1.576203 2.681732 2.200412 0.871447 -5.256701 4.754147 41.652017 8.782993 -5.673371 6.367352 14.943470 -0.000000 -0.000002 -0.000004 9.109322 -0.518053 2.259874 11.741067 -13.030571 10.398479 0.919511 3.157673 -32.444491 0.475360 2.306528 -23.224358 -0.000000 0.000001 0.000004 9.533420 0.000037 0.000039 0.064350 2.425602 -0.672170 0.914962 3.149152 -32.441882 0.294575 1.837311 -18.217709 -0.000001 -0.000001 -0.000004 9.104543 -0.043032 -1.865078 1.405079 7.945448 -11.006783 0.915895 3.146325 -32.440567 0.294404 1.834804 -18.216323 0.000000 -0.000002 0.000004 8.077803 -0.486864 -3.806266 2.203228 25.368374 -18.826554 1.028147 3.089547 -32.442224 0.357462 1.816975 -18.216868 -0.000000 0.000001 0.000003 -8.207787 -6.751657 -1.599561 -9.628867 -11.890406 -10.183774 30.409775 5.199459 -1.833985 -10.458887 -1.733553 10.766550 -0.705581 0.000008 0.000004 -0.000000 0.000003 -0.000001 8.207790 -6.751696 -1.599556 -7.222300 16.771690 16.498983 27.307665 -6.740100 -2.457652 -9.910935 0.796161 -6.300280 -0.000087 0.000003 -0.000010 -0.000000 0.000001 -0.000000 
-0.048463 100.101166 0.916456 -11.851284 -3.874318 -1.264342 -0.000005 10.181605 0.131520 5.063575 1.434931 0.512408 12.855543 0.684366 -0.225446 23.977874 0.595508 -0.320626 0.000002 16.740381 -2.049038 -15.863732 1.848357 -3.268900 0.000000 9.617889 1.685006 -11.209906 -1.902866 -0.037009 0.000002 22.037323 7.501098 0.000000 0.000000 -0.000000 -4.569969 11.014889 -2.160888 4.325047 0.325031 9.161055 -22.333279 8.878461 60.045361 -3.012252 35.586993 0.966956 5.501873 4.035572 8.057858 -2.464816 -1.573976 2.681843 0.954054 0.998590 5.826204 4.522331 -43.401252 -9.479676 -4.022602 -12.283974 -16.204999 -0.000003 -0.000003 0.000006 -9.108274 -0.517875 2.259833 11.931759 12.763920 -11.393897 0.726284 -2.480776 32.528916 0.379351 -1.853323 23.266529 -0.000001 -0.000000 0.000001 -9.532504 -0.000054 -0.000030 0.048023 -2.336459 -0.037731 0.708082 -2.413472 32.472594 0.233457 -1.497504 18.236878 -0.000000 -0.000003 0.000000 -9.103586 -0.043074 -1.865137 1.295377 -7.575173 10.328613 0.730896 -2.524635 32.412874 0.240300 -1.470773 18.216931 0.000000 0.000001 -0.000006 -8.076687 -0.486706 -3.806278 1.811605 -24.578535 18.280609 0.638879 -2.421062 32.313659 0.202010 -1.518311 18.184463 -0.000001 0.000001 0.000001 4.570448 11.014710 -2.160858 5.273592 1.569453 -11.561931 -26.038098 -5.754720 -60.509657 -3.298802 -38.081535 -1.138780 -0.700100 5.509957 -15.156806 2.466132 -1.576206 2.681730 2.200412 0.871452 -5.256711 4.754154 41.652024 8.782983 -5.673368 6.367354 14.943467 -0.000003 -0.000005 -0.000003 9.109320 -0.518048 2.259881 11.738270 -13.016327 10.258581 0.936518 3.184110 -32.752045 0.487811 2.335347 -23.531498 0.000003 0.000002 0.000004 9.533424 0.000027 0.000044 0.064482 2.435493 -0.768479 0.926677 3.167462 -32.654660 0.301415 1.857937 -18.430033 0.000001 0.000001 -0.000006 9.104536 -0.043037 -1.865074 1.411147 7.950299 -11.069081 0.923349 3.157992 -32.575815 0.298758 1.847947 -18.351485 0.000000 0.000003 0.000001 8.077789 -0.486877 -3.806263 2.204761 25.371959 -18.864771 1.032973 3.096531 -32.525122 0.360381 1.824919 -18.299586 -0.000001 0.000001 0.000004 -8.207784 -6.751657 -1.599561 -9.589572 -11.860835 -10.135499 30.368787 5.118452 -1.915265 -10.424897 -1.736948 10.823780 -0.719675 0.000003 0.000002 -0.000000 0.000002 -0.000000 8.207788 -6.751682 -1.599556 -7.145962 16.704713 16.387215 27.248350 -6.621629 -2.338555 -9.886660 0.801549 -6.395063 -0.000060 0.000004 0.000001 0.000000 -0.000000 -0.000000 
-0.060340 100.126144 0.936316 -11.849436 -3.896412 -1.227551 -0.000005 10.181584 0.131522 5.072047 1.526363 0.471882 12.839478 0.737521 -0.248652 23.962896 0.637307 -0.350611 0.000001 16.740381 -2.049037 -15.693919 1.763420 -3.233694 -0.000000 9.617903 1.685008 -11.047256 -2.209384 -0.024100 0.000002 22.037354 7.501099 -0.000003 0.000000 -0.000000 -4.569972 11.014907 -2.160896 4.428606 1.150192 9.416238 -22.219855 8.424914 59.593291 -2.987921 35.367515 0.952884 4.417181 3.760580 6.968172 -2.464807 -1.573947 2.681845 0.954054 0.998597 5.826201 4.522325 -43.401259 -9.479666 -4.022610 -12.283969 -16.205001 0.000007 -0.000009 0.000009 -9.108286 -0.517872 2.259832 11.928506 12.747933 -11.193665 0.733793 -2.492534 32.700111 0.381151 -1.857526 23.323038 0.000003 -0.000002 -0.000002 -9.532507 -0.000030 -0.000028 0.048185 -2.349447 0.121573 0.713958 -2.422898 32.609300 0.234645 -1.500984 18.281963 0.000002 -0.000001 0.000006 -9.103585 -0.043073 -1.865136 1.308114 -7.583282 10.466305 0.736026 -2.532681 32.530446 0.241309 -1.473761 18.255545 -0.000001 -0.000000 -0.000001 -8.076672 -0.486710 -3.806275 1.814966 -24.588140 18.405299 0.643262 -2.428491 32.419452 0.202841 -1.521018 18.219410 0.000001 0.000001 -0.000012 4.570452 11.014701 -2.160857 5.298230 0.888301 -11.904507 -26.160224 -5.560976 -60.092319 -3.230825 -37.504374 -1.097129 -1.176666 5.375563 -14.847291 2.466150 -1.576206 2.681733 2.200412 0.871459 -5.256707 4.754147 41.652020 8.782991 -5.673369 6.367354 14.943462 -0.000000 -0.000000 -0.000001 9.109311 -0.518044 2.259873 11.733892 -12.992771 10.024443 0.965282 3.228184 -33.267095 0.509044 2.383508 -24.045821 -0.000001 0.000000 0.000006 9.533420 0.000025 0.000044 0.064742 2.453480 -0.944163 0.948180 3.200775 -33.042679 0.314107 1.895511 -18.817325 -0.000001 0.000000 0.000000 9.104546 -0.043032 -1.865077 1.424261 7.960756 -11.203651 0.939615 3.183235 -32.869537 0.308282 1.876372 -18.644374 -0.000000 0.000001 0.000001 8.077805 -0.486875 -3.806266 2.209191 25.382282 -18.974832 1.046909 3.116615 -32.764154 0.368899 1.847814 -18.538120 0.000000 0.000000 0.000000 -8.207786 -6.751657 -1.599559 -9.535947 -11.815391 -10.085746 30.285434 5.018426 -2.025751 -10.367703 -1.740287 10.900731 -0.735907 0.000016 0.000004 -0.000000 0.000001 -0.000000 8.207793 -6.751698 -1.599556 -7.010128 16.593005 16.178054 27.138865 -6.389662 -2.141248 -9.848270 0.808888 -6.551297 -0.000043 -0.000005 -0.000007 -0.000000 -0.000000 -0.000000 
-0.072898 100.157806 0.967714 -11.845804 -3.923471 -1.188757 -0.000005 10.181592 0.131521 5.067839 1.617513 0.425738 12.808477 0.791584 -0.271252 23.937112 0.681674 -0.380934 0.000001 16.740421 -2.049036 -15.473700 1.675985 -3.198024 0.000001 9.617854 1.685011 -10.853581 -2.548154 -0.025080 0.000002 22.037384 7.501095 0.000000 0.000000 0.000000 -4.569969 11.014916 -2.160879 4.529316 1.997669 9.680540 -22.053678 7.951920 59.121332 -2.973460 35.236632 0.944447 3.113275 3.438973 5.820706 -2.464820 -1.573969 2.681848 0.954052 0.998593 5.826197 4.522324 -43.401255 -9.479681 -4.022608 -12.283965 -16.204999 0.000002 -0.000008 0.000002 -9.108264 -0.517864 2.259840 11.923868 12.724302 -10.897446 0.744914 -2.509849 32.953436 0.383851 -1.863788 23.406623 0.000001 -0.000002 -0.000001 -9.532504 -0.000038 -0.000019 0.048533 -2.370638 0.381845 0.723673 -2.438258 32.832607 0.236530 -1.506679 18.355625 0.000000 -0.000001 0.000001 -9.103590 -0.043091 -1.865125 1.331860 -7.598188 10.723429 0.745739 -2.547761 32.750822 0.243179 -1.479333 18.327788 0.000000 0.000001 -0.000000 -8.076693 -0.486715 -3.806274 1.822722 -24.608664 18.691639 0.653322 -2.445476 32.662088 0.204741 -1.527237 18.299458 0.000002 0.000001 -0.000003 4.570450 11.014735 -2.160853 5.318423 0.187425 -12.267488 -26.298890 -5.292530 -59.700798 -3.162931 -36.918924 -1.056045 -1.660474 5.311350 -14.597257 2.466127 -1.576205 2.681733 2.200413 0.871452 -5.256707 4.754156 41.652020 8.782984 -5.673374 6.367351 14.943464 -0.000002 0.000000 -0.000001 9.109316 -0.518031 2.259871 11.728461 -12.961999 9.717270 1.003581 3.285671 -33.943100 0.537576 2.446399 -24.720787 0.000002 0.000005 0.000002 9.533435 0.000012 0.000037 0.065159 2.477606 -1.179572 0.977406 3.245178 -33.562709 0.331474 1.945712 -19.336262 -0.000002 0.000001 -0.000007 9.104536 -0.043016 -1.865080 1.442465 7.975136 -11.389680 0.962296 3.218023 -33.276029 0.321680 1.915628 -19.049534 -0.000001 0.000002 -0.000000 8.077793 -0.486871 -3.806267 2.215614 25.397126 -19.133030 1.067061 3.145373 -33.107583 0.381306 1.880663 -18.880846 -0.000000 -0.000004 0.000005 -8.207786 -6.751675 -1.599561 -9.459889 -11.756519 -10.015809 30.174311 4.889160 -2.161288 -10.305630 -1.743865 10.987002 -0.748592 0.000003 0.000002 0.000000 0.000001 -0.000001 8.207792 -6.751692 -1.599555 -6.843364 16.466819 15.939648 26.999021 -6.118320 -1.917438 -9.803656 0.816052 -6.730350 -0.000045 -0.000007 -0.000003 -0.000000 -0.000000 -0.000000 
